<svg id="Layer_1" data-name="Layer 1" xmlns="http://www.w3.org/2000/svg" viewBox="0 0 802.17 663.07"><defs><style>.cls-1{fill:none;}.cls-1,.cls-2{stroke:#222;stroke-miterlimit:10;stroke-width:6px;}.cls-2{fill:#f77ca2;}</style></defs><g id="Layer_2" data-name="Layer 2"><polygon class="cls-1" points="19.2 227.72 3.97 199.52 39.51 176.95 47.4 193.88 109.45 166.8 109.45 130.7 121.86 118.29 147.81 128.44 147.81 122.8 155.71 101.37 172.63 93.47 185.04 105.88 196.32 84.44 230.17 66.39 238.06 88.96 253.86 138.6 320.42 195 355.39 208.54 403.53 233.36 497.54 205.16 507.69 166.8 528 167.93 528 178.08 592.3 131.83 582.15 109.26 548.3 110.39 550.56 91.21 587.79 66.39 592.3 28.04 592.3 11.11 671.27 3.22 684.81 43.83 691.58 56.24 720.91 53.98 743.48 79.93 797.63 47.22 789.73 81.06 779.58 127.31 764.91 139.72 761.53 171.31 699.48 224.34 640.81 267.21 629.53 241.26 601.33 281.87 638.56 288.64 657.74 288.64 626.15 329.25 644.2 362.72 663.38 378.89 670.15 429.66 678.04 455.61 657.74 513.14 604.71 561.65 550.56 585.34 512.2 612.42 473.85 603.39 428.72 574.06 403.53 584.22 362.16 574.06 355.39 590.99 294.47 531.19 319.29 479.3 266.27 470.27 236.93 484.94 216.63 483.81 196.32 456.74 171.5 465.76 151.19 453.35 109.45 440.94 80.12 394.69 38.38 381.15 27.1 357.46 56.43 322.48 46.28 307.82 18.07 278.49 11.3 252.54 19.2 227.72"/><polygon class="cls-1" points="666.76 549.24 687.07 578.58 699.48 543.6 693.84 502.99 683.12 508.63 666.76 549.24"/><polygon class="cls-1" points="500.92 659.8 523.49 650.78 523.49 641.75 535.9 623.7 512.2 623.7 484 641.75 484 651.91 500.92 659.8"/></g><polygon class="cls-2" points="568.17 257.24 584.59 257.24 587.06 252.65 585.47 247.71 590.76 245.06 590.76 234.83 582.82 234.83 577.35 229.71 568.17 238.71 570.82 246.83 563.06 251.24 568.17 257.24"/></svg>