<?xml version="1.0" encoding="utf-8"?>
<!-- Generator: Adobe Illustrator 25.1.0, SVG Export Plug-In . SVG Version: 6.00 Build 0)  -->
<svg version="1.1" id="Layer_1" xmlns="http://www.w3.org/2000/svg" xmlns:xlink="http://www.w3.org/1999/xlink" x="0px" y="0px"
	 viewBox="0 0 802.2 663.1" style="enable-background:new 0 0 802.2 663.1;" xml:space="preserve">
<style type="text/css">
	.st0{fill:#FFA180;stroke:#222222;stroke-width:6;stroke-miterlimit:10;}
	.st1{fill:none;stroke:#222222;stroke-width:6;stroke-miterlimit:10;}
</style>
<image style="display:none;overflow:visible;" width="3000" height="2517" xlink:href="3291D218.jpg"  transform="matrix(0.284 0 0 0.284 -41.8542 -39.2353)">
</image>
<polyline class="st0" points="601.3,281.9 597.1,271.8 586.5,269 583.6,257.7 586.5,242.6 596.4,245.9 596.4,253.5 613.5,264.3 "/>
<g id="Layer_2_1_">
	<polygon class="st1" points="19.2,227.7 4,199.5 39.5,176.9 47.4,193.9 109.4,166.8 109.4,130.7 121.9,118.3 147.8,128.4 
		147.8,122.8 155.7,101.4 172.6,93.5 185,105.9 196.3,84.4 230.2,66.4 238.1,89 253.9,138.6 320.4,195 355.4,208.5 403.5,233.4 
		497.5,205.2 507.7,166.8 528,167.9 528,178.1 592.3,131.8 582.2,109.3 548.3,110.4 550.6,91.2 587.8,66.4 592.3,28 592.3,11.1 
		671.3,3.2 684.8,43.8 691.6,56.2 720.9,54 743.5,79.9 797.6,47.2 789.7,81.1 779.6,127.3 764.9,139.7 761.5,171.3 699.5,224.3 
		640.8,267.2 629.5,241.3 601.3,281.9 638.6,288.6 657.7,288.6 626.2,329.2 644.2,362.7 663.4,378.9 670.2,429.7 678,455.6 
		657.7,513.1 604.7,561.7 550.6,585.3 512.2,612.4 473.9,603.4 428.7,574.1 403.5,584.2 362.2,574.1 355.4,591 294.5,531.2 
		319.3,479.3 266.3,470.3 236.9,484.9 216.6,483.8 196.3,456.7 171.5,465.8 151.2,453.4 109.4,440.9 80.1,394.7 38.4,381.1 
		27.1,357.5 56.4,322.5 46.3,307.8 18.1,278.5 11.3,252.5 	"/>
	<polygon class="st1" points="666.8,549.2 687.1,578.6 699.5,543.6 693.8,503 683.1,508.6 	"/>
	<polygon class="st1" points="500.9,659.8 523.5,650.8 523.5,641.8 535.9,623.7 512.2,623.7 484,641.8 484,651.9 	"/>
</g>
</svg>
